<?xml version="1.0" encoding="UTF-8" standalone="no"?>
<!DOCTYPE svg PUBLIC "-//W3C//DTD SVG 1.1//EN"
 "http://www.w3.org/Graphics/SVG/1.1/DTD/svg11.dtd">
<!-- Generated by graphviz version 2.36.0 (20140111.2315)
 -->
<!-- Title: G Pages: 1 -->
<svg width="610pt" height="734pt"
 viewBox="0.00 0.00 610.00 734.00" xmlns="http://www.w3.org/2000/svg" xmlns:xlink="http://www.w3.org/1999/xlink">
<g id="graph0" class="graph" transform="scale(1 1) rotate(0) translate(4 730)">
<title>G</title>
<polygon fill="white" stroke="none" points="-4,4 -4,-730 606,-730 606,4 -4,4"/>
<g id="clust1" class="cluster"><title>cluster_Global</title>
<path fill="none" stroke="gray" d="M338,-8C338,-8 582,-8 582,-8 588,-8 594,-14 594,-20 594,-20 594,-706 594,-706 594,-712 588,-718 582,-718 582,-718 338,-718 338,-718 332,-718 326,-712 326,-706 326,-706 326,-20 326,-20 326,-14 332,-8 338,-8"/>
<text text-anchor="middle" x="460" y="-705.2" font-family="Times,serif" font-size="11.00" fill="gray">Global</text>
</g>
<g id="clust2" class="cluster"><title>cluster_\Radic</title>
<path fill="none" stroke="gray" d="M346,-16C346,-16 574,-16 574,-16 580,-16 586,-22 586,-28 586,-28 586,-678 586,-678 586,-684 580,-690 574,-690 574,-690 346,-690 346,-690 340,-690 334,-684 334,-678 334,-678 334,-28 334,-28 334,-22 340,-16 346,-16"/>
<text text-anchor="middle" x="460" y="-677.2" font-family="Times,serif" font-size="11.00" fill="gray">Radic</text>
</g>
<g id="clust3" class="cluster"><title>cluster_\Radic\BladeExtensions</title>
<path fill="none" stroke="gray" d="M354,-24C354,-24 566,-24 566,-24 572,-24 578,-30 578,-36 578,-36 578,-650 578,-650 578,-656 572,-662 566,-662 566,-662 354,-662 354,-662 348,-662 342,-656 342,-650 342,-650 342,-36 342,-36 342,-30 348,-24 354,-24"/>
<text text-anchor="middle" x="460" y="-649.2" font-family="Times,serif" font-size="11.00" fill="gray">BladeExtensions</text>
</g>
<g id="clust4" class="cluster"><title>cluster_\Radic\BladeExtensions\Traits</title>
<path fill="none" stroke="gray" d="M385,-508C385,-508 535,-508 535,-508 541,-508 547,-514 547,-520 547,-520 547,-622 547,-622 547,-628 541,-634 535,-634 535,-634 385,-634 385,-634 379,-634 373,-628 373,-622 373,-622 373,-520 373,-520 373,-514 379,-508 385,-508"/>
<text text-anchor="middle" x="460" y="-621.2" font-family="Times,serif" font-size="11.00" fill="gray">Traits</text>
</g>
<g id="clust5" class="cluster"><title>cluster_\Radic\BladeExtensions\Helpers</title>
<path fill="none" stroke="gray" d="M418,-320C418,-320 502,-320 502,-320 508,-320 514,-326 514,-332 514,-332 514,-488 514,-488 514,-494 508,-500 502,-500 502,-500 418,-500 418,-500 412,-500 406,-494 406,-488 406,-488 406,-332 406,-332 406,-326 412,-320 418,-320"/>
<text text-anchor="middle" x="460" y="-487.2" font-family="Times,serif" font-size="11.00" fill="gray">Helpers</text>
</g>
<g id="clust6" class="cluster"><title>cluster_\Radic\BladeExtensions\Directives</title>
<path fill="none" stroke="gray" d="M395,-78C395,-78 525,-78 525,-78 531,-78 537,-84 537,-90 537,-90 537,-300 537,-300 537,-306 531,-312 525,-312 525,-312 395,-312 395,-312 389,-312 383,-306 383,-300 383,-300 383,-90 383,-90 383,-84 389,-78 395,-78"/>
<text text-anchor="middle" x="460" y="-299.2" font-family="Times,serif" font-size="11.00" fill="gray">Directives</text>
</g>
<!-- \\Radic\\BladeExtensions\\Traits\\BladeViewTestingTrait -->
<g id="node1" class="node"><title>\\Radic\\BladeExtensions\\Traits\\BladeViewTestingTrait</title>
<polygon fill="none" stroke="black" points="539,-606 381,-606 381,-570 539,-570 539,-606"/>
<text text-anchor="middle" x="460" y="-585.2" font-family="Courier,monospace" font-size="11.00">BladeViewTestingTrait</text>
</g>
<!-- \\Radic\\BladeExtensions\\Traits\\BladeExtenderTrait -->
<g id="node2" class="node"><title>\\Radic\\BladeExtensions\\Traits\\BladeExtenderTrait</title>
<polygon fill="none" stroke="black" points="529,-552 391,-552 391,-516 529,-516 529,-552"/>
<text text-anchor="middle" x="460" y="-531.2" font-family="Courier,monospace" font-size="11.00">BladeExtenderTrait</text>
</g>
<!-- \\Radic\\BladeExtensions\\Helpers\\Partial -->
<g id="node3" class="node"><title>\\Radic\\BladeExtensions\\Helpers\\Partial</title>
<polygon fill="none" stroke="black" points="492,-472 428,-472 428,-436 492,-436 492,-472"/>
<text text-anchor="middle" x="460" y="-451.2" font-family="Courier,monospace" font-size="11.00">Partial</text>
</g>
<!-- \\Radic\\BladeExtensions\\Helpers\\LoopFactory -->
<g id="node4" class="node"><title>\\Radic\\BladeExtensions\\Helpers\\LoopFactory</title>
<polygon fill="none" stroke="black" points="505.5,-418 414.5,-418 414.5,-382 505.5,-382 505.5,-418"/>
<text text-anchor="middle" x="460" y="-397.2" font-family="Courier,monospace" font-size="11.00">LoopFactory</text>
</g>
<!-- \\Radic\\BladeExtensions\\Helpers\\Loop -->
<g id="node5" class="node"><title>\\Radic\\BladeExtensions\\Helpers\\Loop</title>
<polygon fill="none" stroke="black" points="487,-364 433,-364 433,-328 487,-328 487,-364"/>
<text text-anchor="middle" x="460" y="-343.2" font-family="Courier,monospace" font-size="11.00">Loop</text>
</g>
<!-- \\Radic\\BladeExtensions\\Directives\\MacroDirective -->
<g id="node6" class="node"><title>\\Radic\\BladeExtensions\\Directives\\MacroDirective</title>
<polygon fill="none" stroke="black" points="515.5,-284 404.5,-284 404.5,-248 515.5,-248 515.5,-284"/>
<text text-anchor="middle" x="460" y="-263.2" font-family="Courier,monospace" font-size="11.00">MacroDirective</text>
</g>
<!-- \\Radic\\BladeExtensions\\Directives\\VariablesDirective -->
<g id="node7" class="node"><title>\\Radic\\BladeExtensions\\Directives\\VariablesDirective</title>
<polygon fill="none" stroke="black" points="529,-230 391,-230 391,-194 529,-194 529,-230"/>
<text text-anchor="middle" x="460" y="-209.2" font-family="Courier,monospace" font-size="11.00">VariablesDirective</text>
</g>
<!-- \\Radic\\BladeExtensions\\Directives\\ForeachDirective -->
<g id="node8" class="node"><title>\\Radic\\BladeExtensions\\Directives\\ForeachDirective</title>
<polygon fill="none" stroke="black" points="522.5,-176 397.5,-176 397.5,-140 522.5,-140 522.5,-176"/>
<text text-anchor="middle" x="460" y="-155.2" font-family="Courier,monospace" font-size="11.00">ForeachDirective</text>
</g>
<!-- \\Radic\\BladeExtensions\\Directives\\PartialDirective -->
<g id="node9" class="node"><title>\\Radic\\BladeExtensions\\Directives\\PartialDirective</title>
<polygon fill="none" stroke="black" points="522.5,-122 397.5,-122 397.5,-86 522.5,-86 522.5,-122"/>
<text text-anchor="middle" x="460" y="-101.2" font-family="Courier,monospace" font-size="11.00">PartialDirective</text>
</g>
<!-- \\Radic\\BladeExtensions\\BladeExtensionsServiceProvider -->
<g id="node10" class="node"><title>\\Radic\\BladeExtensions\\BladeExtensionsServiceProvider</title>
<polygon fill="none" stroke="black" points="569.5,-68 350.5,-68 350.5,-32 569.5,-32 569.5,-68"/>
<text text-anchor="middle" x="460" y="-47.2" font-family="Courier,monospace" font-size="11.00">BladeExtensionsServiceProvider</text>
</g>
<!-- \\Illuminate\\Support\\ServiceProvider -->
<g id="node11" class="node"><title>\\Illuminate\\Support\\ServiceProvider</title>
<ellipse fill="none" stroke="black" cx="139" cy="-50" rx="139.175" ry="18"/>
<text text-anchor="middle" x="139" y="-46.3" font-family="Times,serif" font-size="14.00" fill="gray">\Illuminate\Support\ServiceProvider</text>
</g>
<!-- \\Radic\\BladeExtensions\\BladeExtensionsServiceProvider&#45;&gt;\\Illuminate\\Support\\ServiceProvider -->
<g id="edge1" class="edge"><title>\\Radic\\BladeExtensions\\BladeExtensionsServiceProvider&#45;&gt;\\Illuminate\\Support\\ServiceProvider</title>
<path fill="none" stroke="black" d="M350.111,-50C330.256,-50 309.235,-50 288.465,-50"/>
<polygon fill="none" stroke="black" points="288.295,-46.5001 278.294,-50 288.294,-53.5001 288.295,-46.5001"/>
</g>
</g>
</svg>
